<svg width="16" height="16" viewBox="0 0 6 7" fill="none" xmlns="http://www.w3.org/2000/svg">
<g clip-path="url(#clip0_32_439)">
<path d="M3.13851 2.31425C2.42643 2.31425 1.85207 2.88566 1.85207 3.59407C1.85207 4.30248 2.42643 4.87389 3.13851 4.87389C3.85059 4.87389 4.42496 4.30248 4.42496 3.59407C4.42496 2.88566 3.85059 2.31425 3.13851 2.31425ZM3.13851 4.42612C2.67835 4.42612 2.30215 4.05298 2.30215 3.59407C2.30215 3.13516 2.67723 2.76202 3.13851 2.76202C3.5998 2.76202 3.97487 3.13516 3.97487 3.59407C3.97487 4.05298 3.59868 4.42612 3.13851 4.42612ZM4.77764 2.2619C4.77764 2.42787 4.64328 2.56042 4.47758 2.56042C4.31076 2.56042 4.17752 2.42675 4.17752 2.2619C4.17752 2.09705 4.31187 1.96339 4.47758 1.96339C4.64328 1.96339 4.77764 2.09705 4.77764 2.2619ZM5.62967 2.56487C5.61064 2.165 5.51883 1.81079 5.22437 1.51896C4.93103 1.22713 4.57499 1.1358 4.17304 1.11575C3.75878 1.09236 2.51712 1.09236 2.10286 1.11575C1.70204 1.13468 1.346 1.22602 1.05154 1.51785C0.757078 1.80968 0.666388 2.16388 0.646235 2.56376C0.622723 2.97588 0.622723 4.21114 0.646235 4.62327C0.665269 5.02314 0.757078 5.37735 1.05154 5.66918C1.346 5.96101 1.70092 6.05234 2.10286 6.07239C2.51712 6.09578 3.75878 6.09578 4.17304 6.07239C4.57499 6.05345 4.93103 5.96212 5.22437 5.66918C5.51771 5.37735 5.60952 5.02314 5.62967 4.62327C5.65318 4.21114 5.65318 2.977 5.62967 2.56487ZM5.09449 5.06547C5.00716 5.28378 4.8381 5.45197 4.61753 5.53997C4.28724 5.67029 3.50351 5.64022 3.13851 5.64022C2.77352 5.64022 1.98866 5.66918 1.65949 5.53997C1.44005 5.45309 1.27098 5.2849 1.18253 5.06547C1.05154 4.73688 1.08177 3.95719 1.08177 3.59407C1.08177 3.23095 1.05266 2.45014 1.18253 2.12267C1.26986 1.90436 1.43893 1.73616 1.65949 1.64817C1.98978 1.51785 2.77352 1.54792 3.13851 1.54792C3.50351 1.54792 4.28836 1.51896 4.61753 1.64817C4.83698 1.73505 5.00604 1.90324 5.09449 2.12267C5.22549 2.45126 5.19526 3.23095 5.19526 3.59407C5.19526 3.95719 5.22549 4.738 5.09449 5.06547Z" fill="white"/>
</g>
<defs>
<clipPath id="clip0_32_439">
<rect width="5.06927" height="5.70292" fill="white" transform="translate(0.642883 0.743622)"/>
</clipPath>
</defs>
</svg>
