<svg width="16" height="16" viewBox="0 0 7 5" fill="none" xmlns="http://www.w3.org/2000/svg">
<g clip-path="url(#clip0_32_429)">
<path d="M6.54347 0.917547C6.33216 1.00768 6.10803 1.06684 5.87853 1.09306C6.11758 0.955112 6.30113 0.736663 6.38756 0.476384C6.16031 0.606224 5.91169 0.697704 5.65242 0.746872C5.44123 0.530248 5.14037 0.394867 4.80737 0.394867C4.16801 0.394867 3.64963 0.893947 3.64963 1.5095C3.64963 1.59687 3.65988 1.68194 3.67961 1.76354C2.71745 1.71704 1.86441 1.27329 1.29339 0.598905C1.19376 0.763532 1.13667 0.955027 1.13667 1.15928C1.13667 1.546 1.34107 1.88716 1.6517 2.08706C1.46785 2.08152 1.28805 2.03371 1.1273 1.94763C1.12724 1.9523 1.12724 1.95696 1.12724 1.96165C1.12724 2.50172 1.5263 2.95224 2.05589 3.05464C1.88541 3.09928 1.70659 3.10581 1.53308 3.07374C1.6804 3.51658 2.10795 3.83883 2.61454 3.84785C2.21832 4.1468 1.71912 4.32501 1.17674 4.32501C1.08328 4.32501 0.991147 4.31972 0.900574 4.30943C1.41291 4.62569 2.02144 4.81023 2.67522 4.81023C4.80469 4.81023 5.96913 3.11173 5.96913 1.63877C5.96913 1.59042 5.96803 1.54235 5.96578 1.49456C6.19243 1.3368 6.38805 1.14141 6.54347 0.917547Z" fill="white"/>
</g>
<defs>
<clipPath id="clip0_32_429">
<rect width="5.70292" height="4.43561" fill="white" transform="translate(0.910583 0.377258)"/>
</clipPath>
</defs>
</svg>
